<svg width="79" height="43" viewBox="0 0 79 43" fill="none" xmlns="http://www.w3.org/2000/svg">
<path d="M18.3399 42.4265V42.5338H13.5679L7.87016 33.3057H4.20208V42.5338H0V18.2119H9.50817C11.0752 18.2119 12.4874 18.5399 13.746 19.1955C15.0041 19.8516 15.9834 20.7575 16.6839 21.9138C17.3839 23.0706 17.7345 24.3639 17.7345 25.7947C17.7345 27.488 17.2359 28.96 16.2388 30.2119C15.2417 31.4636 13.8762 32.3399 12.1435 32.8408L18.3399 42.4265ZM9.08089 29.8005C10.4576 29.8005 11.5381 29.449 12.3216 28.7453C13.105 28.0423 13.4967 27.0823 13.4967 25.8661C13.4967 24.6982 13.0927 23.738 12.2859 22.9868C11.4785 22.2357 10.4341 21.8601 9.15213 21.8601H4.20208V29.8005H9.08089Z" fill="white"/>
<path d="M26.6908 41.3182C24.8035 40.1977 23.3372 38.6715 22.2929 36.74C21.2478 34.8085 20.726 32.6748 20.726 30.3376C20.726 27.9295 21.2658 25.7717 22.3463 23.8637C23.4263 21.9563 24.9159 20.4602 26.8155 19.3748C28.7146 18.2901 30.8752 17.7475 33.2967 17.7475C35.1247 17.7475 36.7628 18.0336 38.2111 18.6059C39.6589 19.1782 41.06 20.0846 42.4132 21.3242L40.2408 24.1856C38.3652 22.4452 36.0861 21.5746 33.4034 21.5746C31.7654 21.5746 30.317 21.9501 29.0589 22.7012C27.8002 23.4523 26.8154 24.4896 26.1031 25.813C25.3909 27.1364 25.0347 28.6448 25.0347 30.3376C25.0347 31.983 25.3786 33.4796 26.0675 34.8265C26.7559 36.1738 27.7235 37.2351 28.9698 38.0097C30.2162 38.7849 31.6463 39.1722 33.2611 39.1722C34.7568 39.1722 36.0977 38.8744 37.2851 38.2777C38.4721 37.682 39.4807 36.8354 40.3122 35.7385L42.9473 38.4569C41.7599 39.9356 40.3477 41.0624 38.7095 41.8368C37.0715 42.6115 35.2314 42.9993 33.1898 42.9993C30.7444 42.9993 28.5783 42.4393 26.6908 41.3182Z" fill="white"/>
<path d="M46.6863 18.2119H55.3399C57.7375 18.2119 59.8741 18.7367 61.7499 19.7856C63.625 20.8351 65.0852 22.2838 66.1303 24.1315C67.1747 25.9796 67.6969 28.072 67.6969 30.4085C67.6969 32.7459 67.1863 34.832 66.1658 36.6679C65.1446 38.5043 63.7025 39.9406 61.839 40.9779C59.975 42.0152 57.8205 42.5338 55.3755 42.5338H46.6864V18.2119H46.6863ZM55.1974 38.8854C56.8588 38.8854 58.3134 38.5277 59.5598 37.8125C60.8061 37.0972 61.7616 36.0956 62.4266 34.8079C63.0909 33.5203 63.4238 32.0539 63.4238 30.4085C63.4238 28.7634 63.0854 27.2912 62.4088 25.9913C61.7322 24.6919 60.7706 23.6787 59.5243 22.9511C58.2779 22.2239 56.8233 21.8601 55.1618 21.8601H50.8885V38.8854H55.1974Z" fill="white"/>
<path d="M74.2545 29.2162C73.7886 29.2162 73.3203 29.0569 72.9366 28.7309C72.076 27.9994 71.9688 26.7056 72.6972 25.8412C76.518 21.3059 72.8352 15.9686 72.6096 15.6507C68.1157 9.62174 62.5629 12.3117 60.3829 13.7485C58.6517 14.8898 56.3738 14.6352 54.9666 13.1437C52.2953 10.3127 51.901 3.47258 51.8492 2.12998C51.8055 0.998364 52.6834 0.045484 53.81 0.00144431C54.9418 -0.0405628 55.8848 0.838875 55.9291 1.96968C56.0365 4.67141 56.7284 9.04909 57.9303 10.3229C57.9674 10.3623 58.0684 10.3695 58.1428 10.32C59.4119 9.48325 62.0177 8.04566 65.2073 7.81815C68.0967 7.61164 72.2992 8.37969 75.8913 13.2106C77.9529 16.0342 80.5741 22.8399 75.814 28.4902C75.4102 28.9695 74.8341 29.2162 74.2545 29.2162Z" fill="#E52356"/>
</svg>
